<?xml version="1.0" encoding="utf-8"?>
<!-- Generator: Adobe Illustrator 17.0.0, SVG Export Plug-In . SVG Version: 6.00 Build 0)  -->
<!DOCTYPE svg PUBLIC "-//W3C//DTD SVG 1.1//EN" "http://www.w3.org/Graphics/SVG/1.1/DTD/svg11.dtd">
<svg version="1.1" id="Layer_1" xmlns="http://www.w3.org/2000/svg" xmlns:xlink="http://www.w3.org/1999/xlink" x="0px" y="0px"
	 width="100px" height="100px" viewBox="-40 0 100 100" enable-background="new -40 0 100 100" xml:space="preserve">
<rect x="-40" y="0" display="none" fill="#FFFFFF" width="100" height="100"/>
<g id="Icons">
	<g>
		<path fill="#1D97FF" d="M0.846,71.195l-0.305,3.568l-13.753,3.686c-7.456,1.999-13.335,6.781-15.865,12.906l-3.687,8.928
			c0,0,40.988,15.499,85.529,0.071l-3.687-8.928c-2.53-6.125-8.409-10.907-15.865-12.905l-13.753-3.686l-0.277-3.455"/>
		<path fill="#464747" d="M0.573,74.294c-0.111,0.028-0.222,0.028-0.332,0.028c-0.443,0-0.858-0.084-1.301-0.224
			c-1.163-0.448-2.104-1.483-2.27-2.826c-0.277-0.14-0.581-0.28-0.858-0.42c-0.498,0.28-1.024,0.448-1.55,0.448
			c-0.72,0-1.44-0.224-2.021-0.616c-1.052-0.699-1.717-1.93-1.578-3.273c-0.249-0.196-0.471-0.391-0.692-0.615
			c-0.305,0.112-0.581,0.168-0.886,0.168c-0.997,0-1.938-0.448-2.602-1.175c-0.858-0.923-1.218-2.266-0.775-3.553
			c-0.166-0.252-0.36-0.476-0.526-0.727c-0.056,0-0.111,0.056-0.166,0.056c-1.301,0-2.408-0.784-3.018-1.847
			c-0.443-0.783-0.609-1.706-0.415-2.546c0.055-0.336,0.222-0.727,0.471-1.119c-0.111-0.28-0.249-0.56-0.36-0.839
			c-1.329-0.252-2.298-1.259-2.658-2.462c-0.36-1.203-0.056-2.546,0.914-3.469c-0.083-0.336-0.111-0.672-0.166-1.007
			c-0.581-0.252-1.107-0.588-1.467-1.147c-0.692-1.091-0.775-2.574-0.194-3.749c0.277-0.588,0.775-0.979,1.329-1.315
			c0-0.336,0.028-0.643,0.028-0.979c-1.08-0.811-1.523-2.126-1.301-3.385c0.222-1.231,1.08-2.35,2.381-2.742
			c0.083-0.308,0.166-0.587,0.249-0.867c-0.858-1.063-0.997-2.462-0.498-3.637c0.526-1.175,1.605-2.042,2.99-2.126
			c0.139-0.28,0.305-0.504,0.443-0.755c-0.637-1.259-0.415-2.658,0.332-3.693c0.747-1.035,2.048-1.623,3.405-1.371
			c0.194-0.224,0.387-0.448,0.581-0.643c-0.332-1.343,0.194-2.686,1.163-3.497C-10.085,17.78-9.2,17.5-8.369,17.5
			c0.36,0,0.775,0.084,1.218,0.28c0.222-0.14,0.471-0.28,0.692-0.42c0-0.672,0.138-1.315,0.526-1.875
			c0.692-1.091,2.021-1.763,3.294-1.679c0.692,0.028,1.301,0.28,1.799,0.7c0.277-0.112,0.554-0.196,0.831-0.308
			c0.139-0.615,0.388-1.231,0.858-1.679c0.941-0.923,2.381-1.259,3.599-0.867c0.664,0.196,1.135,0.615,1.55,1.119
			c0.305-0.028,0.581-0.112,0.886-0.14c1.218-2.434,5.011-2.434,6.229,0c0.305,0.028,0.581,0.112,0.886,0.14
			c0.415-0.504,0.914-0.923,1.55-1.119c1.246-0.392,2.658-0.028,3.599,0.867c0.47,0.448,0.72,1.063,0.858,1.679
			c0.305,0.112,0.581,0.224,0.858,0.308c1.08-0.839,2.492-0.895,3.654-0.308c0.803,0.42,1.412,1.091,1.744,1.903
			c0.111,0.308,0.194,0.755,0.166,1.231c0.249,0.168,0.498,0.308,0.72,0.448c0.443-0.196,0.886-0.28,1.218-0.28
			c0.831-0.056,1.716,0.28,2.408,0.867c0.969,0.812,1.495,2.154,1.163,3.497c0.194,0.196,0.388,0.42,0.581,0.615
			c0.637-0.112,1.273-0.084,1.91,0.196c1.19,0.531,2.076,1.706,2.215,2.994c0.083,0.671-0.055,1.343-0.36,1.902
			c0.138,0.252,0.277,0.504,0.443,0.755c1.356,0.084,2.436,0.951,2.962,2.126c0.498,1.175,0.36,2.574-0.498,3.637
			c0.083,0.28,0.166,0.56,0.249,0.867c0.443,0.14,0.831,0.308,1.107,0.532c0.664,0.531,1.135,1.315,1.274,2.238
			c0.221,1.231-0.222,2.546-1.301,3.357c0,0.336,0.027,0.643,0.027,0.979c0.554,0.336,1.052,0.727,1.329,1.315
			c0.609,1.175,0.526,2.658-0.194,3.749c-0.36,0.56-0.886,0.895-1.467,1.147c-0.055,0.336-0.083,0.672-0.166,1.007
			c0.969,0.923,1.273,2.266,0.914,3.469c-0.36,1.203-1.329,2.21-2.658,2.462c-0.111,0.28-0.249,0.588-0.36,0.867
			c0.72,1.147,0.664,2.546,0.055,3.637c-0.471,0.812-1.163,1.399-1.965,1.651c-0.305,0.112-0.637,0.168-1.052,0.168
			c-0.055,0-0.111-0.028-0.166-0.028c-0.166,0.252-0.36,0.476-0.526,0.727c0.443,1.287,0.083,2.658-0.775,3.581
			c-0.664,0.699-1.605,1.147-2.602,1.147c-0.277,0-0.581-0.056-0.886-0.168c-0.222,0.224-0.443,0.42-0.692,0.615
			c0.138,1.371-0.526,2.574-1.578,3.273c-0.581,0.392-1.301,0.616-2.021,0.616c-0.526,0-1.052-0.168-1.55-0.448
			c-0.277,0.14-0.554,0.28-0.858,0.42c-0.055,0.448-0.166,0.839-0.305,1.147c-0.415,0.755-1.107,1.343-1.965,1.679
			c-0.415,0.14-0.858,0.224-1.301,0.224c-0.111,0-0.249,0-0.36-0.028"/>
		<path fill="#DDBEA8" d="M19.459,74.835c0,10.794-18.892,10.689-18.892-0.091v-4.477h18.892V74.835z"/>
		<path fill="#F9D9C0" d="M24.909,61.353c2.191,0.392,4.585-1.498,5.224-4.158c0.639-2.66-0.563-6.042-2.754-6.435l-3.8,5.75
			l-0.309-9.033v0l0,0c0.406-2.615-1.774-4.897-4.374-4.577l-8.898,1.093L1.101,42.9c-2.6-0.319-4.78,1.963-4.374,4.577l0,0v0
			l-0.475,9.303l-3.785-6.129c-2.041,0.392-3.213,3.883-2.617,6.543c0.596,2.66,2.734,4.498,4.775,4.105
			c2.001,7.413,7.991,13.26,15.083,13.26C16.931,74.56,23.022,68.978,24.909,61.353z"/>
		
			<path fill="none" stroke="#303030" stroke-width="0.8" stroke-linecap="round" stroke-linejoin="round" stroke-miterlimit="10" d="
			M0.817,71.53l-0.276,3.234l-13.753,3.686c-7.456,1.999-13.335,6.781-15.865,12.906l-3.687,8.928c0,0,40.988,15.499,85.529,0.071
			l-3.687-8.928c-2.53-6.125-8.409-10.907-15.865-12.905l-13.753-3.686l-0.277-3.455"/>
		
			<path fill="none" stroke="#303030" stroke-width="0.8" stroke-linecap="round" stroke-linejoin="round" stroke-miterlimit="10" d="
			M24.909,61.353c2.191,0.392,4.585-1.498,5.224-4.158c0.639-2.66-0.563-6.042-2.754-6.435l-3.8,5.75l-0.309-9.033v0l0,0
			c-0.005-3.036-1.774-4.897-4.374-4.577l-8.898,1.093L1.101,42.9c-2.6-0.319-4.267,1.499-4.374,4.577l0,0v0l-0.475,9.303
			l-3.785-6.129c-2.041,0.392-3.213,3.883-2.617,6.543c0.596,2.66,2.734,4.498,4.775,4.105c2.001,7.413,7.991,13.26,15.083,13.26
			C16.931,74.56,23.022,68.978,24.909,61.353z"/>
		
			<path fill="none" stroke="#303030" stroke-width="0.8" stroke-linecap="round" stroke-linejoin="round" stroke-miterlimit="10" d="
			M0.573,74.294c-0.111,0.028-0.222,0.028-0.332,0.028c-0.443,0-0.858-0.084-1.301-0.224c-1.163-0.448-2.104-1.483-2.27-2.826
			c-0.277-0.14-0.581-0.28-0.858-0.42c-0.498,0.28-1.024,0.448-1.55,0.448c-0.72,0-1.44-0.224-2.021-0.616
			c-1.052-0.699-1.717-1.93-1.578-3.273c-0.249-0.196-0.471-0.391-0.692-0.615c-0.305,0.112-0.581,0.168-0.886,0.168
			c-0.997,0-1.938-0.448-2.602-1.175c-0.858-0.923-1.218-2.266-0.775-3.553c-0.166-0.252-0.36-0.476-0.526-0.727
			c-0.056,0-0.111,0.056-0.166,0.056c-1.301,0-2.408-0.784-3.018-1.847c-0.443-0.783-0.609-1.706-0.415-2.546
			c0.055-0.336,0.222-0.727,0.471-1.119c-0.111-0.28-0.249-0.56-0.36-0.839c-1.329-0.252-2.298-1.259-2.658-2.462
			c-0.36-1.203-0.056-2.546,0.914-3.469c-0.083-0.336-0.111-0.672-0.166-1.007c-0.581-0.252-1.107-0.588-1.467-1.147
			c-0.692-1.091-0.775-2.574-0.194-3.749c0.277-0.588,0.775-0.979,1.329-1.315c0-0.336,0.028-0.643,0.028-0.979
			c-1.08-0.811-1.523-2.126-1.301-3.385c0.222-1.231,1.08-2.35,2.381-2.742c0.083-0.308,0.166-0.587,0.249-0.867
			c-0.858-1.063-0.997-2.462-0.498-3.637c0.526-1.175,1.605-2.042,2.99-2.126c0.139-0.28,0.305-0.504,0.443-0.755
			c-0.637-1.259-0.415-2.658,0.332-3.693c0.747-1.035,2.048-1.623,3.405-1.371c0.194-0.224,0.387-0.448,0.581-0.643
			c-0.332-1.343,0.194-2.686,1.163-3.497C-10.085,17.78-9.2,17.5-8.369,17.5c0.36,0,0.775,0.084,1.218,0.28
			c0.222-0.14,0.471-0.28,0.692-0.42c0-0.672,0.138-1.315,0.526-1.875c0.692-1.091,2.021-1.763,3.294-1.679
			c0.692,0.028,1.301,0.28,1.799,0.7c0.277-0.112,0.554-0.196,0.831-0.308c0.139-0.615,0.388-1.231,0.858-1.679
			c0.941-0.923,2.381-1.259,3.599-0.867c0.664,0.196,1.135,0.615,1.55,1.119c0.305-0.028,0.581-0.112,0.886-0.14
			c1.218-2.434,5.011-2.434,6.229,0c0.305,0.028,0.581,0.112,0.886,0.14c0.415-0.504,0.914-0.923,1.55-1.119
			c1.246-0.392,2.658-0.028,3.599,0.867c0.47,0.448,0.72,1.063,0.858,1.679c0.305,0.112,0.581,0.224,0.858,0.308
			c1.08-0.839,2.492-0.895,3.654-0.308c0.803,0.42,1.412,1.091,1.744,1.903c0.111,0.308,0.194,0.755,0.166,1.231
			c0.249,0.168,0.498,0.308,0.72,0.448c0.443-0.196,0.886-0.28,1.218-0.28c0.831-0.056,1.716,0.28,2.408,0.867
			c0.969,0.812,1.495,2.154,1.163,3.497c0.194,0.196,0.388,0.42,0.581,0.615c0.637-0.112,1.273-0.084,1.91,0.196
			c1.19,0.531,2.076,1.706,2.215,2.994c0.083,0.671-0.055,1.343-0.36,1.902c0.138,0.252,0.277,0.504,0.443,0.755
			c1.356,0.084,2.436,0.951,2.962,2.126c0.498,1.175,0.36,2.574-0.498,3.637c0.083,0.28,0.166,0.56,0.249,0.867
			c0.443,0.14,0.831,0.308,1.107,0.532c0.664,0.531,1.135,1.315,1.274,2.238c0.221,1.231-0.222,2.546-1.301,3.357
			c0,0.336,0.027,0.643,0.027,0.979c0.554,0.336,1.052,0.727,1.329,1.315c0.609,1.175,0.526,2.658-0.194,3.749
			c-0.36,0.56-0.886,0.895-1.467,1.147c-0.055,0.336-0.083,0.672-0.166,1.007c0.969,0.923,1.273,2.266,0.914,3.469
			c-0.36,1.203-1.329,2.21-2.658,2.462c-0.111,0.28-0.249,0.588-0.36,0.867c0.72,1.147,0.664,2.546,0.055,3.637
			c-0.471,0.812-1.163,1.399-1.965,1.651c-0.305,0.112-0.637,0.168-1.052,0.168c-0.055,0-0.111-0.028-0.166-0.028
			c-0.166,0.252-0.36,0.476-0.526,0.727c0.443,1.287,0.083,2.658-0.775,3.581c-0.664,0.699-1.605,1.147-2.602,1.147
			c-0.277,0-0.581-0.056-0.886-0.168c-0.222,0.224-0.443,0.42-0.692,0.615c0.138,1.371-0.526,2.574-1.578,3.273
			c-0.581,0.392-1.301,0.616-2.021,0.616c-0.526,0-1.052-0.168-1.55-0.448c-0.277,0.14-0.554,0.28-0.858,0.42
			c-0.055,0.448-0.166,0.839-0.305,1.147c-0.415,0.755-1.107,1.343-1.965,1.679c-0.415,0.14-0.858,0.224-1.301,0.224
			c-0.111,0-0.249,0-0.36-0.028"/>
		
			<path fill="none" stroke="#303030" stroke-width="0.8" stroke-linecap="round" stroke-linejoin="round" stroke-miterlimit="10" d="
			M0.567,74.744c0,10.78,18.892,10.885,18.892,0.091"/>
	</g>
</g>
</svg>
