<?xml version="1.0" encoding="utf-8"?>
<!-- Generator: Adobe Illustrator 17.0.0, SVG Export Plug-In . SVG Version: 6.00 Build 0)  -->
<!DOCTYPE svg PUBLIC "-//W3C//DTD SVG 1.1//EN" "http://www.w3.org/Graphics/SVG/1.1/DTD/svg11.dtd">
<svg version="1.1" id="Layer_1" xmlns="http://www.w3.org/2000/svg" xmlns:xlink="http://www.w3.org/1999/xlink" x="0px" y="0px"
	 width="100px" height="100px" viewBox="-40 0 100 100" enable-background="new -40 0 100 100" xml:space="preserve">
<rect x="-40" display="none" fill="#FFFFFF" width="100" height="100"/>
<g id="Icons">
	<g>
		<path fill="#464747" d="M21.738,99.962c6.614-4.099,9.44-9.191,7.297-13.011c-1.552-2.795-4.192-4.099-1.956-11.396
			c0.838-2.733,2.719-6.146,4.906-11.117c4.671-10.616,4.842-22.002-2.144-33.15c-4.627-7.422-13.26-11.489-21.923-10.713
			C0.049,21.28-7.049,25.978-10.723,32.982c-2.902,5.532-3.808,9.18-3.629,15.361c0.09,3.096,0.44,6.208,1.099,9.236
			c0.714,3.282,2.479,6.236,2.19,9.725c-0.517,6.242-6.397,11.899-11.446,15.012c-0.217,0.124,4.064-2.818,4.064-2.818"/>
		<path fill="#6352C1" d="M0.839,70.152l-0.248,3.105l-3.913,1.149l-6.024,1.77h-0.031l-3.726,1.087
			c-1.77,0.528-3.447,1.211-4.999,2.049c-0.217,0.124-0.342,0.186-0.342,0.186c-4.844,2.671-8.57,6.832-10.434,11.769l-3.664,9.688
			c0,0,40.772,16.799,85.084,0.062l-3.664-9.688c-2.515-6.645-8.353-11.831-15.775-14.005l-6.024-1.77"/>
		<path fill="#DDBEA8" d="M20.936,73.15c0,10.657-20.367,10.553-20.367-0.09v-4.42h20.367V73.15z"/>
		<path fill="#F9D9C0" d="M1.798,33.731c0,0-0.182,4.978-3.95,10.594s-5.372,10.35-4.217,14.319s5.017,8.809,9.041,11.855
			c4.024,3.046,11.094,3.916,16.152-0.816s6.275-11.72,4.742-15.459c-1.533-3.739-3.799-3.86-8.006-6.476S3.48,39.818,1.798,33.731z
			"/>
		
			<path fill="none" stroke="#303030" stroke-width="0.8" stroke-linecap="round" stroke-linejoin="round" stroke-miterlimit="10" d="
			M16.198,79.978c-6.011,2.737-15.629,0.433-15.629-6.884"/>
		<path fill="#464747" d="M23.717,53.57c0,0,2.393,6.037-2.92,13.673s-6.814,7.886-3.249,15.142
			c3.565,7.256,12.254,8.404,5.095,16.993c0,0,9.229-6.047,7.29-10.551c-1.939-4.504-4.882-6.468-2.877-13.961
			S31.325,60.971,23.717,53.57z"/>
		
			<path fill="none" stroke="#303030" stroke-width="0.8" stroke-linecap="round" stroke-linejoin="round" stroke-miterlimit="10" d="
			M0.839,70.152l-0.248,3.105l-3.913,1.149l-6.024,1.77h-0.031l-3.726,1.087c-1.77,0.528-3.447,1.211-4.999,2.049
			c-0.217,0.124-0.342,0.186-0.342,0.186c-4.844,2.671-8.57,6.832-10.434,11.769l-3.664,9.688c0,0,40.772,16.799,85.084,0.062
			l-3.664-9.688c-2.515-6.645-8.353-11.831-15.775-14.005l-6.024-1.77"/>
		
			<path fill="none" stroke="#303030" stroke-width="0.8" stroke-linecap="round" stroke-linejoin="round" stroke-miterlimit="10" d="
			M20.301,67.974c-5.563,6.892-20.317,7.947-26.479-7.759"/>
		
			<path fill="none" stroke="#303030" stroke-width="0.8" stroke-linecap="round" stroke-linejoin="round" stroke-miterlimit="10" d="
			M21.738,99.962c0.59-0.559,6.428-6.521,2.515-9.688c-4.099-3.323-13.104-11.427-5.558-20.308
			c4.185-4.538,7.049-12.328,4.347-16.83c-1.304-2.174-10.837-7.08-13.011-8.974C6.864,41.428,2.33,37.392,1.74,32.982
			c0.186,1.304-0.062,2.609-0.435,3.851c-2.619,8.548-9.14,12.841-7.484,23.382c1.076,6.257,3.651,7.722,2.857,14.191"/>
		
			<path fill="none" stroke="#303030" stroke-width="0.8" stroke-linecap="round" stroke-linejoin="round" stroke-miterlimit="10" d="
			M21.738,99.962c6.614-4.099,9.44-9.191,7.297-13.011c-1.552-2.795-4.192-4.099-1.956-11.396c0.838-2.733,2.719-6.146,4.906-11.117
			c4.671-10.616,4.842-22.002-2.144-33.15c-4.627-7.422-13.26-11.489-21.923-10.713C0.049,21.28-7.049,25.978-10.723,32.982
			c-2.902,5.532-3.808,9.18-3.629,15.361c0.09,3.096,0.44,6.208,1.099,9.236c0.714,3.282,2.479,6.236,2.19,9.725
			c-0.517,6.242-6.397,11.899-11.446,15.012c-0.217,0.124,4.064-2.818,4.064-2.818"/>
		
			<path fill="none" stroke="#303030" stroke-width="0.8" stroke-linecap="round" stroke-linejoin="round" stroke-miterlimit="10" d="
			M22.643,52.631c0,0,9.594,6.956,5.363,20.462"/>
	</g>
</g>
</svg>
