<?xml version="1.0" encoding="utf-8"?>
<!-- Generator: Adobe Illustrator 17.0.0, SVG Export Plug-In . SVG Version: 6.00 Build 0)  -->
<!DOCTYPE svg PUBLIC "-//W3C//DTD SVG 1.1//EN" "http://www.w3.org/Graphics/SVG/1.1/DTD/svg11.dtd">
<svg version="1.1" id="Layer_1" xmlns="http://www.w3.org/2000/svg" xmlns:xlink="http://www.w3.org/1999/xlink" x="0px" y="0px"
	 width="100px" height="100px" viewBox="21.417 17.813 100 100" enable-background="new 21.417 17.813 100 100"
	 xml:space="preserve">
<rect x="21.417" y="17.813" display="none" fill="#FFFFFF" width="100" height="100"/>
<g id="Icons">
	<g>
		<path fill="#F43735" d="M62.542,88.823l-0.241,3.008l-13.267,3.881c-7.16,2.106-12.845,7.13-15.282,13.567l-3.55,9.386
			c0,0,39.499,16.275,82.428,0.06l-3.55-9.386c-2.437-6.438-8.092-11.462-15.282-13.568l-13.267-3.881l-0.241-3.248"/>
		<path fill="#DDBEA8" d="M80.454,91.795c0,9.952-18.074,9.855-18.074-0.084v-4.128h18.074V91.795z"/>
		<path fill="#F9D9C0" d="M76.356,53.882c0,0-3.664,7.524-12.623,10.411c-8.958,2.886-10.105,3.06-9.845,9.134
			c0.26,6.074,6.525,17.128,15.924,17.901s15.487-5.239,17.629-13.789c2.142-8.55,0.35-10.078-2.756-12.414
			C81.579,62.789,77.157,56.418,76.356,53.882z"/>
		<g>
			<path fill="#464747" d="M76.374,54.516c6.532,12.81,8.025,8.34,11.148,13.757c3.091,5.385-2.836,15.582-2.836,15.582
				c8.859-5.767,8.253-18.291,8.253-18.291c0-7.361-3.059-13.32-6.341-17.399c-2.645-3.282-6.022-5.513-9.687-6.66
				c-3.665-1.211-7.584-1.307-11.28-0.319c-8.795,2.231-16.379,10.388-16.379,24.345l-0.016-0.002c0,0-0.967,12.552,8.6,18.309
				c0,0-6.413-10.183-3.049-15.58c3.364-5.397,14.554-0.948,21.598-13.729"/>
		</g>
		<path fill="#464747" d="M79.427,35.706c0,2.295-0.956,4.366-2.517,5.8c-3.665-1.211-7.584-1.306-11.28-0.318
			c-1.37-1.403-2.198-3.346-2.198-5.481c0-4.429,3.601-7.997,7.998-7.997C75.858,27.708,79.427,31.277,79.427,35.706z"/>
		
			<path fill="none" stroke="#303030" stroke-width="0.8" stroke-linecap="round" stroke-linejoin="round" stroke-miterlimit="10" d="
			M62.542,88.823l-0.241,3.008l-13.267,3.881c-7.16,2.106-12.845,7.13-15.282,13.567l-3.55,9.386c0,0,39.499,16.275,82.428,0.06
			l-3.55-9.386c-2.437-6.438-8.092-11.462-15.282-13.568l-13.267-3.881l-0.241-3.248"/>
		<g>
			
				<path fill="none" stroke="#303030" stroke-width="0.8" stroke-linecap="round" stroke-linejoin="round" stroke-miterlimit="10" d="
				M76.374,54.516c5.662,12.142,8.025,8.34,11.148,13.757c3.091,5.385-2.836,15.582-2.836,15.582
				c8.859-5.767,8.253-18.291,8.253-18.291c0-7.361-3.059-13.32-6.341-17.399c-2.645-3.282-6.022-5.513-9.687-6.66
				c-3.665-1.211-7.584-1.307-11.28-0.319c-8.795,2.231-16.379,10.388-16.379,24.345l-0.016-0.002c0,0-0.967,12.552,8.6,18.309
				c0,0-6.413-10.183-3.049-15.58c3.364-5.397,14.554-0.948,21.598-13.729"/>
		</g>
		
			<path fill="none" stroke="#303030" stroke-width="0.8" stroke-linecap="round" stroke-linejoin="round" stroke-miterlimit="10" d="
			M84.685,83.855c0,0-12.47,16.825-26.85-0.016"/>
		
			<path fill="none" stroke="#303030" stroke-width="0.8" stroke-linecap="round" stroke-linejoin="round" stroke-miterlimit="10" d="
			M79.427,35.706c0,2.295-0.956,4.366-2.517,5.8c-3.665-1.211-7.584-1.306-11.28-0.318c-1.37-1.403-2.198-3.346-2.198-5.481
			c0-4.429,3.601-7.997,7.998-7.997C75.858,27.708,79.427,31.277,79.427,35.706z"/>
		
			<path fill="none" stroke="#303030" stroke-width="0.8" stroke-linecap="round" stroke-linejoin="round" stroke-miterlimit="10" d="
			M62.301,91.831c0,9.253,18.231,9.359,18.231,0.06"/>
	</g>
</g>
</svg>
