<?xml version="1.0" encoding="utf-8"?>
<!-- Generator: Adobe Illustrator 17.0.0, SVG Export Plug-In . SVG Version: 6.00 Build 0)  -->
<!DOCTYPE svg PUBLIC "-//W3C//DTD SVG 1.1//EN" "http://www.w3.org/Graphics/SVG/1.1/DTD/svg11.dtd">
<svg version="1.1" id="Layer_1" xmlns="http://www.w3.org/2000/svg" xmlns:xlink="http://www.w3.org/1999/xlink" x="0px" y="0px"
	 width="100px" height="100px" viewBox="-40 0 100 100" enable-background="new -40 0 100 100" xml:space="preserve">
<rect x="-40" display="none" fill="#FFFFFF" width="100" height="100"/>
<g id="Icons">
	<g>
		<path fill="#F43735" d="M0.837,71.999l-0.305,3.534l-13.766,3.65c-7.463,1.979-13.347,6.716-15.879,12.782l-3.691,8.842
			c0,0,41.026,15.35,85.608,0.071l-3.69-8.842c-2.532-6.066-8.416-10.803-15.879-12.782l-13.766-3.651l-0.278-3.422"/>
		<path fill="#DDBEA8" d="M18.857,76.002c0,9.459-18.325,9.367-18.325-0.08v-3.923h18.325V76.002z"/>
		<path fill="#464747" d="M25.05,62.199c2.192,0.389,4.489-1.432,5.129-4.066c0.64-2.634-0.564-5.984-2.756-6.373l0.239-9.355
			c0-20.141-35.452-20.141-35.452,0l0.268,9.247c-2.043,0.389-3.216,3.846-2.619,6.48c0.597,2.634,2.736,4.454,4.779,4.066"/>
		<path fill="#F9D9C0" d="M-4.285,45.945l-0.191,8.518l-3.048-2.702c0,0-3.403,1.078-2.96,5.469c0,0,0.443,4.559,4.849,5.021
			c0,0,1.85,7.154,7.453,10.69c5.603,3.536,18.363,4.563,23.054-10.394c0,0,3.677,0.198,4.918-3.3
			c1.241-3.497,0.358-6.435-2.356-7.958l-3.367,3.909v-9.255C24.067,45.945-4.285,45.945-4.285,45.945z"/>
		
			<path fill="none" stroke="#303030" stroke-width="0.8" stroke-linecap="round" stroke-linejoin="round" stroke-miterlimit="10" d="
			M0.837,71.999l-0.305,3.534l-13.766,3.65c-7.463,1.979-13.347,6.716-15.879,12.782l-3.691,8.842c0,0,41.026,15.35,85.608,0.071
			l-3.69-8.842c-2.532-6.066-8.416-10.803-15.879-12.782l-13.766-3.651l-0.278-3.422"/>
		
			<path fill="none" stroke="#303030" stroke-width="0.8" stroke-linecap="round" stroke-linejoin="round" stroke-miterlimit="10" d="
			M25.05,62.199c2.192,0.389,4.489-1.432,5.129-4.066c0.64-2.634-0.564-5.984-2.756-6.373l0.239-9.355
			c0-20.141-35.452-20.141-35.452,0l0.268,9.247c-2.043,0.389-3.216,3.846-2.619,6.48c0.597,2.634,2.736,4.454,4.779,4.066"/>
		
			<path fill="none" stroke="#303030" stroke-width="0.8" stroke-linecap="round" stroke-linejoin="round" stroke-miterlimit="10" d="
			M-5.362,62.199C-3.36,69.54,2.636,75.332,9.735,75.332c7.229,0,13.326-5.529,15.214-13.08"/>
		
			<polyline fill="none" stroke="#303030" stroke-width="0.8" stroke-linecap="round" stroke-linejoin="round" stroke-miterlimit="10" points="
			-7.524,51.653 -4.476,54.673 -4.476,45.945 15.64,45.945 24.341,45.945 24.341,48.134 24.341,55.199 27.416,51.763 		"/>
		
			<path fill="none" stroke="#303030" stroke-width="0.8" stroke-linecap="round" stroke-linejoin="round" stroke-miterlimit="10" d="
			M0.532,75.534c0,9.78,18.936,9.864,18.935,0.07"/>
	</g>
</g>
</svg>
