<?xml version="1.0" encoding="utf-8"?>
<!-- Generator: Adobe Illustrator 17.0.0, SVG Export Plug-In . SVG Version: 6.00 Build 0)  -->
<!DOCTYPE svg PUBLIC "-//W3C//DTD SVG 1.1//EN" "http://www.w3.org/Graphics/SVG/1.1/DTD/svg11.dtd">
<svg version="1.1" id="Layer_1" xmlns="http://www.w3.org/2000/svg" xmlns:xlink="http://www.w3.org/1999/xlink" x="0px" y="0px"
	 width="100px" height="100px" viewBox="-40 0 100 100" enable-background="new -40 0 100 100" xml:space="preserve">
<rect x="-40" display="none" fill="#FFFFFF" width="100" height="100"/>
<g id="Icons">
	<g>
		<path fill="#A67358" d="M0.952,70.541l-0.301,3.567l-13.594,3.685c-7.37,1.997-13.181,6.778-15.681,12.9l-3.645,8.925
			c0,0,40.513,15.493,84.538,0.071l-3.645-8.924c-2.5-6.122-8.311-10.903-15.681-12.9l-13.594-3.684l-0.274-3.454"/>
		<path fill="#DDBEA8" d="M19.213,74.651c0,9.713-18.562,9.618-18.562-0.082v-4.028h18.562V74.651z"/>
		<path fill="#F9D9C0" d="M-7.633,49.762c0,0-2.316,1.627-2.403,4.62c-0.086,2.993,1.193,6.191,4.839,6.49
			c0,0,1.267,5.948,5.847,9.67c4.58,3.721,9.74,3.567,9.74,3.567s11.704-2.022,14.258-13.062c0,0,4.803-0.594,5.252-4.499
			s-2.698-6.54-2.698-6.54l-3.779,5.856l-0.408-9.021l0.721-5.22L10,42.357l-14.322-0.553l1.203,5.029l-0.738,9.299L-7.633,49.762z"
			/>
		<path fill="#464747" d="M-3.857,56.132c0,0-6.596-9.148-6.402-15.625c0.194-6.478,3.949-5.268,4.851-4.955
			c0,0,4.314-5.737,13.863-7.381c9.549-1.644,17.334,0.848,17.334,0.848s-2.477,3.163-1.38,5.672
			c1.097,2.509,5.296,5.813,2.792,15.315l-3.779,5.856l-0.408-9.525l0.721-4.716L10,42.357l-13.92-0.736l0.801,5.212L-3.857,56.132z
			"/>
		
			<path fill="none" stroke="#303030" stroke-width="0.8" stroke-linecap="round" stroke-linejoin="round" stroke-miterlimit="10" d="
			M0.937,70.718l-0.286,3.39l-13.594,3.685c-7.37,1.997-13.181,6.778-15.681,12.9l-3.645,8.925c0,0,40.513,15.493,84.538,0.071
			l-3.645-8.924c-2.5-6.122-8.311-10.903-15.681-12.9l-13.594-3.684l-0.274-3.454"/>
		
			<path fill="none" stroke="#303030" stroke-width="0.8" stroke-linecap="round" stroke-linejoin="round" stroke-miterlimit="10" d="
			M24.836,60.65c2.165,0.393,4.432-1.445,5.065-4.103c0.632-2.659-0.557-6.04-2.722-6.432l-3.756,5.748l-0.408-9.296l0,0"/>
		
			<path fill="none" stroke="#303030" stroke-width="0.8" stroke-linecap="round" stroke-linejoin="round" stroke-miterlimit="10" d="
			M-7.329,50.006c-2.017,0.392-3.176,3.882-2.587,6.54c0.589,2.659,2.702,4.496,4.719,4.103"/>
		
			<path fill="none" stroke="#303030" stroke-width="0.8" stroke-linecap="round" stroke-linejoin="round" stroke-miterlimit="10" d="
			M24.736,60.703c-1.865,7.621-7.885,13.202-15.025,13.202c-7.01,0-12.93-5.845-14.908-13.254"/>
		
			<path fill="none" stroke="#303030" stroke-width="0.8" stroke-linecap="round" stroke-linejoin="round" stroke-miterlimit="10" d="
			M27.178,50.114c2.343-10.536-0.909-10.65-2.442-14.377c-1.533-3.728,1.272-6.657,1.272-6.657C5.08,23.134-5.197,35.63-5.197,35.63
			s-3.133-1.42-4.624,2.247c-1.793,4.409,2.491,12.129,2.491,12.129l3.741,6.126l0.469-9.299l0,0l-0.801-5.212L10,42.357
			l13.736-0.736l-0.721,4.945"/>
		
			<path fill="none" stroke="#303030" stroke-width="0.8" stroke-linecap="round" stroke-linejoin="round" stroke-miterlimit="10" d="
			M0.651,74.108c0,9.7,18.699,9.784,18.699,0.071"/>
	</g>
</g>
</svg>
