<?xml version="1.0" encoding="utf-8"?>
<!-- Generator: Adobe Illustrator 17.0.0, SVG Export Plug-In . SVG Version: 6.00 Build 0)  -->
<!DOCTYPE svg PUBLIC "-//W3C//DTD SVG 1.1//EN" "http://www.w3.org/Graphics/SVG/1.1/DTD/svg11.dtd">
<svg version="1.1" id="Layer_1" xmlns="http://www.w3.org/2000/svg" xmlns:xlink="http://www.w3.org/1999/xlink" x="0px" y="0px"
	 width="100px" height="100px" viewBox="-40.358 -0.236 100 100" enable-background="new -40.358 -0.236 100 100"
	 xml:space="preserve">
<rect x="-40.358" y="-0.236" display="none" fill="#FFFFFF" width="100" height="100"/>
<g id="Icons">
	<g>
		<path fill="#6352C1" d="M18.583,70.868l0.242,3.031l13.365,3.909c7.213,2.122,12.941,7.183,15.395,13.668l3.576,9.456
			c0,0-39.792,16.395-83.038,0.061l3.576-9.456c2.243-5.94,7.243-10.698,13.638-13.062L0.46,73.96l0.242-3.273"/>
	</g>
	<path fill="#DDBEA8" d="M18.825,73.447c0,10.429-18.365,10.328-18.365-0.088v-4.326h18.365V73.447z"/>
	<path fill="#A67358" d="M32.432,41.411c-1.03-3.273-2.909-10.638-2.909-10.638c-1.399-5.278-4.343-8.547-6.799-10.453
		c-1.929-1.498-4.191-2.463-6.587-2.937c-4.901-0.97-15.556-2.073-22.374,4.632c-7.173,7.077-8.972,15.615-8.719,24.414
		c0.097,3.392,0.745,6.744,1.896,9.936c0.712,1.976,1.288,4.564,0.459,6.532c-1.546,3.637-2.485,7.001-0.303,9.304
		c0,0-2.667,2.909-1.758,6.273c0.242,0.97,0.788,1.97,1.758,2.94c0,0-4.243,3.788,0,8.031c0,0-0.333,6.819,1.818,7.849
		c2.152,1.03,2.788-5.394,2.455-7.849c0.242-0.849,2.97-4.788,0-7.758c0,0,2-2.637,1.728-5.576
		c-0.091-1.212-0.576-2.455-1.728-3.576c0,0,2.172-6.333,6.718-5.606c-5.119-4.184-5.437-14.396-5.437-14.396
		s-0.529-8.912,3.156-14.965c5.361-8.806,24.839-8.431,24.839-8.431c0.728,7.758,6.334,14.153,7.153,18.668
		c0.667,3.788-1.091,10.456-1.697,12.547c-0.121,0.394-0.182,0.636-0.182,0.636c0.697-0.576,1.364-1.152,1.939-1.758
		c0.182-0.182,0.364-0.364,0.515-0.576C34.039,52.321,33.372,44.32,32.432,41.411z"/>
	<path fill="#F9D9C0" d="M20.643,29.137c0,0-8.189-1.584-17.286,2.796s-9.846,8.309-10.933,14.848l-1.034,5.385l-1.961-1.754
		c0,0-0.877,8.218,3.94,9.68c0,0,3.671,14.378,15.672,13.307c12.001-1.071,16.179-8.637,17.3-13.764
		c1.121-5.128,2.627-10.047,0.906-13.708C25.523,42.266,20.323,34.351,20.643,29.137z"/>
	<g>
		
			<polyline fill="none" stroke="#30302F" stroke-width="0.8" stroke-linecap="round" stroke-linejoin="round" stroke-miterlimit="10" points="
			-6.904,76.112 0.46,73.96 0.702,70.687 		"/>
		
			<path fill="none" stroke="#30302F" stroke-width="0.8" stroke-linecap="round" stroke-linejoin="round" stroke-miterlimit="10" d="
			M18.583,70.868l0.242,3.031l13.365,3.909c7.213,2.122,12.941,7.183,15.395,13.668l3.576,9.456c0,0-39.792,16.395-83.038,0.061
			l3.576-9.456c2.243-5.94,7.243-10.698,13.638-13.062"/>
	</g>
	<g>
		
			<path fill="none" stroke="#30302F" stroke-width="0.8" stroke-linecap="round" stroke-linejoin="round" stroke-miterlimit="10" d="
			M28.372,58.655c-0.152,0.212-0.333,0.394-0.515,0.576"/>
		
			<path fill="none" stroke="#30302F" stroke-width="0.8" stroke-linecap="round" stroke-linejoin="round" stroke-miterlimit="10" d="
			M-6.627,59.691c2.054,8.074,8.684,13.986,16.547,13.986c7.72,0,14.241-6.192,16.419-14.042"/>
	</g>
	<g>
		
			<path fill="none" stroke="#30302F" stroke-width="0.8" stroke-linecap="round" stroke-linejoin="round" stroke-miterlimit="10" d="
			M-10.572,50.412c-0.091,1.061,0.182,2.455,0.515,3.879c0.061,0.303,0.152,0.636,0.212,0.939c0,0,0,0,0,0.03
			c0.576,2.455,1.273,4.728,3.212,4.364"/>
	</g>
	<path fill="none" stroke="#30302F" stroke-width="0.8" stroke-linecap="round" stroke-linejoin="round" stroke-miterlimit="10" d="
		M-9.844,55.261c0-0.03,0-0.03,0-0.03"/>
	<path fill="none" stroke="#30302F" stroke-width="0.8" stroke-linecap="round" stroke-linejoin="round" stroke-miterlimit="10" d="
		M-10.572,50.412c0.788,1.303,2.122,2.273,2.122,2.273s0.57-9.064,4.255-15.116c5.361-8.806,24.839-8.431,24.839-8.431
		c0.728,7.758,6.334,14.153,7.152,18.668c0.666,3.788-1.091,10.456-1.697,12.547c-0.121,0.394-0.182,0.636-0.182,0.636
		c0.697-0.576,1.364-1.151,1.94-1.758c0.182-0.182,0.364-0.364,0.515-0.576c5.667-6.334,5.001-14.335,4.061-17.244
		c-1.03-3.273-2.909-10.638-2.909-10.638c-1.399-5.278-4.344-8.547-6.799-10.454c-1.929-1.498-4.192-2.463-6.588-2.937
		c-4.901-0.97-15.556-2.073-22.375,4.633c-7.173,7.077-8.972,15.615-8.718,24.414c0.098,3.392,0.745,6.744,1.896,9.936
		c0.712,1.976,1.288,4.564,0.459,6.532c-1.546,3.637-2.485,7.001-0.303,9.304c0,0-2.667,2.909-1.758,6.273
		c0.242,0.97,0.788,1.97,1.758,2.94c0,0-4.243,3.788,0,8.031c0,0-0.333,6.819,1.819,7.849c2.152,1.03,2.788-5.394,2.455-7.849
		c0.242-0.849,2.97-4.788,0-7.758c0,0,2-2.637,1.727-5.576c-0.091-1.212-0.576-2.455-1.727-3.576c0,0,1.212-5.97,5.758-5.243
		c-6.763-1.13-9.491-8.349-9.491-8.349"/>
	
		<line fill="none" stroke="#30302F" stroke-width="0.8" stroke-linecap="round" stroke-linejoin="round" stroke-miterlimit="10" x1="-8.632" y1="72.535" x2="-12.905" y2="72.535"/>
	
		<line fill="none" stroke="#30302F" stroke-width="0.8" stroke-linecap="round" stroke-linejoin="round" stroke-miterlimit="10" x1="-8.632" y1="81.688" x2="-12.905" y2="81.688"/>
	
		<line fill="none" stroke="#30302F" stroke-width="0.8" stroke-linecap="round" stroke-linejoin="round" stroke-miterlimit="10" x1="-8.632" y1="89.446" x2="-12.905" y2="89.446"/>
	<path fill="none" stroke="#303030" stroke-width="0.8" stroke-linecap="round" stroke-linejoin="round" stroke-miterlimit="10" d="
		M0.46,73.96c0,9.697,18.366,9.684,18.365-0.061"/>
</g>
</svg>
