<?xml version="1.0" encoding="utf-8"?>
<!-- Generator: Adobe Illustrator 17.0.0, SVG Export Plug-In . SVG Version: 6.00 Build 0)  -->
<!DOCTYPE svg PUBLIC "-//W3C//DTD SVG 1.1//EN" "http://www.w3.org/Graphics/SVG/1.1/DTD/svg11.dtd">
<svg version="1.1" id="Layer_1" xmlns="http://www.w3.org/2000/svg" xmlns:xlink="http://www.w3.org/1999/xlink" x="0px" y="0px"
	 width="100px" height="100px" viewBox="-40 0 100 100" enable-background="new -40 0 100 100" xml:space="preserve">
<rect x="-40" display="none" fill="#FFFFFF" width="100" height="100"/>
<g id="Icons">
	<g>
		<path fill="#1FAA22" d="M0.911,71.593l-0.303,3.505l-13.655,3.621c-7.403,1.963-13.24,6.662-15.751,12.679l-3.661,8.771
			c0,0,40.695,15.227,84.917,0.07l-3.661-8.771c-2.512-6.017-8.349-10.716-15.751-12.679l-13.655-3.621l-0.275-3.395"/>
		<path fill="#DDBEA8" d="M18.898,75.551c0,10.092-17.662,9.994-17.662-0.085V71.28h17.662V75.551z"/>
		<path fill="#F9D9C0" d="M-3.779,43.761l0.676,4.308l-0.446,8.657l-3.829-5.315c0,0-2.919,0.646-2.76,4.84
			c0.16,4.194,2.336,5.464,4.898,5.683c0,0,2.022,7.514,8.078,11.012s13.627,2.506,17.119-2.367s4.869-8.655,4.869-8.655
			s4.66,0.618,5.353-4.431c0.693-5.048-2.632-5.888-2.632-5.888l-3.991,5.338l-0.41-8.614l0.725-5.382l-13.799,1.699L-3.779,43.761z
			"/>
		<path fill="#464747" d="M-7.331,50.995l3.758,6.214l0.471-9.14l-0.804-5.122l13.909,1.871l13.871-1.68l-0.725,4.669l0.195,8.459
			l4.422-5.176c0,0,2.35-8.071,0.146-12.211s-7.001-6.434-9.521-8.766s-7.594-6.744-8.366-8.04c0,0-3.641,4.234-10.586,9.53
			s-7.882,6.907-8.185,10.78C-9.048,46.257-7.331,50.995-7.331,50.995z"/>
		
			<path fill="none" stroke="#303030" stroke-width="0.8" stroke-linecap="round" stroke-linejoin="round" stroke-miterlimit="10" d="
			M0.911,71.593l-0.303,3.505l-13.655,3.621c-7.403,1.963-13.24,6.662-15.751,12.679l-3.661,8.771c0,0,40.695,15.227,84.917,0.07
			l-3.661-8.771c-2.512-6.017-8.349-10.716-15.751-12.679l-13.655-3.621l-0.275-3.395"/>
		
			<path fill="none" stroke="#303030" stroke-width="0.8" stroke-linecap="round" stroke-linejoin="round" stroke-miterlimit="10" d="
			M-7.377,51.411c-2.034,0.385-3.188,3.82-2.611,6.431c0.605,2.611,2.721,4.425,4.755,4.04"/>
		
			<path fill="none" stroke="#303030" stroke-width="0.8" stroke-linecap="round" stroke-linejoin="round" stroke-miterlimit="10" d="
			M27.281,51.519c2.171,0.385,3.381,3.71,2.721,6.322c-0.632,2.611-2.886,4.425-5.085,4.04"/>
		
			<path fill="none" stroke="#303030" stroke-width="0.8" stroke-linecap="round" stroke-linejoin="round" stroke-miterlimit="10" d="
			M24.829,61.924c-1.873,7.49-7.921,12.975-15.092,12.975c-7.041,0-12.989-5.744-14.975-13.026"/>
		<g>
			
				<polyline fill="none" stroke="#303030" stroke-width="0.8" stroke-linecap="round" stroke-linejoin="round" stroke-miterlimit="10" points="
				27.331,51.294 23.559,56.943 23.149,47.807 23.149,47.807 			"/>
		</g>
		<g>
			
				<polyline fill="none" stroke="#303030" stroke-width="0.8" stroke-linecap="round" stroke-linejoin="round" stroke-miterlimit="10" points="
				-7.331,51.187 -3.573,57.209 -3.102,48.069 -3.102,48.069 -3.907,42.947 10.075,44.646 23.874,42.947 23.149,47.807 			"/>
		</g>
		
			<path fill="none" stroke="#303030" stroke-width="0.8" stroke-linecap="round" stroke-linejoin="round" stroke-miterlimit="10" d="
			M-7.281,51.187c0,0-0.993-3.714-1.408-7.488c-0.391-3.559,1.153-7.043,4.064-9.128C0.689,30.766,9.083,23.873,10,21.94
			c1.136,1.82,9.433,9.086,14.73,12.972c2.853,2.093,4.347,5.539,3.966,9.057c-0.411,3.795-1.414,7.549-1.414,7.549"/>
		
			<path fill="none" stroke="#303030" stroke-width="0.8" stroke-linecap="round" stroke-linejoin="round" stroke-miterlimit="10" d="
			M0.609,75.099c0,10.079,18.783,10.162,18.783,0.07"/>
	</g>
</g>
</svg>
